<svg xmlns="http://www.w3.org/2000/svg" viewBox="0 0 320 220" role="img" aria-labelledby="title desc">
  <title id="title">Field Notes QA Copilot cover mark</title>
  <desc id="desc">A stylized checklist card with magnifier and signal rings.</desc>
  <defs>
    <linearGradient id="card" x1="0%" y1="0%" x2="100%" y2="100%">
      <stop offset="0%" stop-color="#fffaf2"/>
      <stop offset="100%" stop-color="#dff3ee"/>
    </linearGradient>
    <linearGradient id="accent" x1="0%" y1="0%" x2="100%" y2="100%">
      <stop offset="0%" stop-color="#0f766e"/>
      <stop offset="100%" stop-color="#115e59"/>
    </linearGradient>
  </defs>
  <rect width="320" height="220" rx="36" fill="url(#card)"/>
  <circle cx="246" cy="70" r="44" fill="#f7dfc8"/>
  <circle cx="246" cy="70" r="28" fill="none" stroke="#b45309" stroke-width="8" opacity="0.35"/>
  <rect x="36" y="34" width="168" height="148" rx="24" fill="#ffffff" stroke="#d7cec3" stroke-width="4"/>
  <rect x="58" y="62" width="20" height="20" rx="6" fill="#0f766e"/>
  <path d="M64 72.5 69 78 78 66.5" fill="none" stroke="#fffaf2" stroke-linecap="round" stroke-linejoin="round" stroke-width="4.5"/>
  <rect x="90" y="64" width="88" height="10" rx="5" fill="#1f1b16" opacity="0.88"/>
  <rect x="90" y="84" width="64" height="8" rx="4" fill="#675b4d" opacity="0.55"/>
  <rect x="58" y="108" width="20" height="20" rx="6" fill="#0f766e"/>
  <path d="M64 118.5 69 124 78 112.5" fill="none" stroke="#fffaf2" stroke-linecap="round" stroke-linejoin="round" stroke-width="4.5"/>
  <rect x="90" y="110" width="76" height="10" rx="5" fill="#1f1b16" opacity="0.88"/>
  <rect x="90" y="130" width="54" height="8" rx="4" fill="#675b4d" opacity="0.55"/>
  <circle cx="232" cy="144" r="30" fill="none" stroke="url(#accent)" stroke-width="10"/>
  <path d="M253 165 278 190" fill="none" stroke="#115e59" stroke-linecap="round" stroke-width="12"/>
</svg>
